<?xml version="1.0" encoding="utf-8"?>
<svg xmlns="http://www.w3.org/2000/svg" style="margin: auto; background: none; display: block; shape-rendering: auto;" width="280" height="250" preserveAspectRatio="xMidYMid">
<style type="text/css">
  text {
    text-anchor: middle; font-size: 80px; opacity: 0;
  }
</style>
<g style="transform-origin:140px 125px;transform:scale(1)">
<g transform="translate(140,125)">
  <g transform="translate(0,0)"><g class="path" style="transform: rotateY(0deg); transform-origin: -69.12px -6.568px; animation: 1s linear -0.3825s infinite normal forwards running flip-h-745f6f06-e957-44ea-b780-e9536cffe855;"><path d="M3.68-56L50.88-56L51.68-35.92L50.16-35.92L50.16-35.92Q46.64-46.56 43.92-50.44L43.92-50.44L43.92-50.44Q41.20-54.32 36.08-54.32L36.08-54.32L35.12-54.32L35.12-1.68L41.92-1.68L41.92 0L12.72 0L12.72-1.68L19.52-1.68L19.52-54.32L18.48-54.32L18.48-54.32Q13.36-54.32 10.56-50.28L10.56-50.28L10.56-50.28Q7.76-46.24 4.40-35.92L4.40-35.92L2.88-35.92L3.68-56" fill="#93dbe9" stroke="none" stroke-width="none" transform="translate(-96.39996337890625,21.43199768066406)" style="fill: rgb(147, 219, 233);"></path></g><g class="path" style="transform: rotateY(0deg); transform-origin: -24.84px 2.392px; animation: 1s linear -0.255s infinite normal forwards running flip-h-745f6f06-e957-44ea-b780-e9536cffe855;"><path d="M76.48-15.76L76.48-15.76L76.48-22.56L76.48-22.56Q76.48-30.32 75.64-33.88L75.64-33.88L75.64-33.88Q74.80-37.44 71.76-37.44L71.76-37.44L71.76-37.44Q70-37.44 68.92-36.44L68.92-36.44L68.92-36.44Q67.84-35.44 67.36-33.12L67.36-33.12L67.36-33.12Q66.64-29.52 66.64-22.16L66.64-22.16L66.64-15.92L66.64-15.92Q66.64-7.20 67.16-5.44L67.16-5.44L67.16-5.44Q67.68-3.68 68.24-2.56L68.24-2.56L68.24-2.56Q69.12-0.64 71.68-0.64L71.68-0.64L71.68-0.64Q74.80-0.64 75.76-4.24L75.76-4.24L75.76-4.24Q76.48-6.80 76.48-15.76zM71.52 0.80L71.52 0.80Q61.52 0.80 56.40-4.32L56.40-4.32L56.40-4.32Q51.28-9.44 51.28-19L51.28-19L51.28-19Q51.28-28.56 56.76-33.72L56.76-33.72L56.76-33.72Q62.24-38.88 72.16-38.88L72.16-38.88L72.16-38.88Q82.08-38.88 86.96-34.12L86.96-34.12L86.96-34.12Q91.84-29.36 91.84-19.60L91.84-19.60L91.84-19.60Q91.84 0.80 71.52 0.80L71.52 0.80" fill="#93dbe9" stroke="none" stroke-width="none" transform="translate(-96.39996337890625,21.43199768066406)" style="fill: rgb(104, 156, 197);"></path></g><g class="path" style="transform: rotateY(0deg); transform-origin: 26.28px -6.568px; animation: 1s linear -0.1275s infinite normal forwards running flip-h-745f6f06-e957-44ea-b780-e9536cffe855;"><path d="M150.40-28.96L150.40-28.96L150.40-28.96Q150.40-12.48 141.12-6L141.12-6L141.12-6Q132.56 0 117.60 0L117.60 0L94.96 0L94.96-1.52L100.24-1.52L100.24-54.48L94.96-54.48L94.96-56L119.68-56L119.68-56Q135.04-56 142.72-49.72L142.72-49.72L142.72-49.72Q150.40-43.44 150.40-28.96zM115.84-54.48L115.84-1.52L118.88-1.52L118.88-1.52Q126.96-1.52 130.44-7.24L130.44-7.24L130.44-7.24Q133.92-12.96 133.92-26.40L133.92-26.40L133.92-31.04L133.92-31.04Q133.92-49.04 127.04-52.72L127.04-52.72L127.04-52.72Q123.76-54.48 117.76-54.48L117.76-54.48L115.84-54.48" fill="#93dbe9" stroke="none" stroke-width="none" transform="translate(-96.39996337890625,21.43199768066406)" style="fill: rgb(94, 111, 163);"></path></g><g class="path" style="transform: rotateY(0deg); transform-origin: 79px 2.392px; animation: 1s linear 0s infinite normal forwards running flip-h-745f6f06-e957-44ea-b780-e9536cffe855;"><path d="M180.32-15.76L180.32-15.76L180.32-22.56L180.32-22.56Q180.32-30.32 179.48-33.88L179.48-33.88L179.48-33.88Q178.64-37.44 175.60-37.44L175.60-37.44L175.60-37.44Q173.84-37.44 172.76-36.44L172.76-36.44L172.76-36.44Q171.68-35.44 171.20-33.12L171.20-33.12L171.20-33.12Q170.48-29.52 170.48-22.16L170.48-22.16L170.48-15.92L170.48-15.92Q170.48-7.20 171-5.44L171-5.44L171-5.44Q171.52-3.68 172.08-2.56L172.08-2.56L172.08-2.56Q172.96-0.64 175.52-0.64L175.52-0.64L175.52-0.64Q178.64-0.64 179.60-4.24L179.60-4.24L179.60-4.24Q180.32-6.80 180.32-15.76zM175.36 0.80L175.36 0.80Q165.36 0.80 160.24-4.32L160.24-4.32L160.24-4.32Q155.12-9.44 155.12-19L155.12-19L155.12-19Q155.12-28.56 160.60-33.72L160.60-33.72L160.60-33.72Q166.08-38.88 176-38.88L176-38.88L176-38.88Q185.92-38.88 190.80-34.12L190.80-34.12L190.80-34.12Q195.68-29.36 195.68-19.60L195.68-19.60L195.68-19.60Q195.68 0.80 175.36 0.80L175.36 0.80" fill="#93dbe9" stroke="none" stroke-width="none" transform="translate(-96.39996337890625,21.43199768066406)" style="fill: rgb(59, 67, 104);"></path></g></g>
</g>
</g>
<style id="flip-h-745f6f06-e957-44ea-b780-e9536cffe855" data-anikit="">@keyframes flip-h-745f6f06-e957-44ea-b780-e9536cffe855
{
  0% {
    animation-timing-function: cubic-bezier(0.1909,0.4373,0.4509,0.7454);
    transform: rotateY(0deg);
  }
  30% {
    animation-timing-function: cubic-bezier(0.128,0.2315,0.9704,0.8632);
    transform: rotateY(153.72deg);
  }
  50% {
    animation-timing-function: cubic-bezier(0.5788,0.3001,0.5613,0.6784);
    transform: rotateY(180deg);
  }
  55% {
    animation-timing-function: cubic-bezier(0.1545,0.4929,0.6089,0.9373);
    transform: rotateY(238.68deg);
  }
  100% {
    transform: rotateY(360deg);
  }
}</style></svg>